<svg width="20" height="20" viewBox="0 0 20 20" fill="none" xmlns="http://www.w3.org/2000/svg">
<path fill-rule="evenodd" clip-rule="evenodd" d="M5.8075 2.0575C5.86556 1.9993 5.93453 1.95312 6.01046 1.92161C6.08639 1.8901 6.16779 1.87389 6.25 1.87389C6.33221 1.87389 6.41361 1.8901 6.48955 1.92161C6.56548 1.95312 6.63445 1.9993 6.6925 2.0575L14.1925 9.5575C14.2507 9.61556 14.2969 9.68453 14.3284 9.76046C14.3599 9.83639 14.3761 9.91779 14.3761 10C14.3761 10.0822 14.3599 10.1636 14.3284 10.2395C14.2969 10.3155 14.2507 10.3844 14.1925 10.4425L6.6925 17.9425C6.57514 18.0599 6.41597 18.1258 6.25 18.1258C6.08403 18.1258 5.92486 18.0599 5.8075 17.9425C5.69014 17.8251 5.62421 17.666 5.62421 17.5C5.62421 17.334 5.69014 17.1749 5.8075 17.0575L12.8663 10L5.8075 2.9425C5.7493 2.88445 5.70312 2.81548 5.67161 2.73955C5.6401 2.66361 5.62389 2.58221 5.62389 2.5C5.62389 2.41779 5.6401 2.33639 5.67161 2.26046C5.70312 2.18453 5.7493 2.11556 5.8075 2.0575V2.0575Z" fill="#FCF7FF"/>
</svg>
