<svg width="20" height="20" viewBox="0 0 20 20" fill="none" xmlns="http://www.w3.org/2000/svg">
<path fill-rule="evenodd" clip-rule="evenodd" d="M14.1925 2.0575C14.2507 2.11556 14.2969 2.18453 14.3284 2.26046C14.3599 2.33639 14.3761 2.41779 14.3761 2.5C14.3761 2.58221 14.3599 2.66361 14.3284 2.73955C14.2969 2.81548 14.2507 2.88445 14.1925 2.9425L7.13375 10L14.1925 17.0575C14.3099 17.1749 14.3758 17.334 14.3758 17.5C14.3758 17.666 14.3099 17.8251 14.1925 17.9425C14.0751 18.0599 13.916 18.1258 13.75 18.1258C13.584 18.1258 13.4249 18.0599 13.3075 17.9425L5.8075 10.4425C5.7493 10.3844 5.70312 10.3155 5.67161 10.2395C5.6401 10.1636 5.62389 10.0822 5.62389 10C5.62389 9.91779 5.6401 9.83639 5.67161 9.76046C5.70312 9.68453 5.7493 9.61556 5.8075 9.5575L13.3075 2.0575C13.3656 1.9993 13.4345 1.95312 13.5105 1.92161C13.5864 1.8901 13.6678 1.87389 13.75 1.87389C13.8322 1.87389 13.9136 1.8901 13.9895 1.92161C14.0655 1.95312 14.1344 1.9993 14.1925 2.0575V2.0575Z" fill="#FCF7FF"/>
</svg>
