<svg width="20" height="20" viewBox="0 0 20 20" fill="none" xmlns="http://www.w3.org/2000/svg">
<g clip-path="url(#clip0_5_298)">
<path d="M0.683428 0.683337C0.812444 0.553994 0.965709 0.451375 1.13445 0.381357C1.30318 0.311339 1.48407 0.275299 1.66676 0.275299C1.84945 0.275299 2.03034 0.311339 2.19908 0.381357C2.36781 0.451375 2.52108 0.553994 2.6501 0.683337L10.0001 8.03612L17.3501 0.683337C17.4792 0.554203 17.6325 0.451769 17.8013 0.381883C17.97 0.311996 18.1508 0.276026 18.3334 0.276026C18.5161 0.276026 18.6969 0.311996 18.8656 0.381883C19.0343 0.451769 19.1876 0.554203 19.3168 0.683337C19.4459 0.81247 19.5483 0.965773 19.6182 1.13449C19.6881 1.30321 19.7241 1.48405 19.7241 1.66667C19.7241 1.84929 19.6881 2.03013 19.6182 2.19885C19.5483 2.36757 19.4459 2.52087 19.3168 2.65L11.964 10L19.3168 17.35C19.4459 17.4791 19.5483 17.6324 19.6182 17.8012C19.6881 17.9699 19.7241 18.1507 19.7241 18.3333C19.7241 18.516 19.6881 18.6968 19.6182 18.8655C19.5483 19.0342 19.4459 19.1875 19.3168 19.3167C19.1876 19.4458 19.0343 19.5482 18.8656 19.6181C18.6969 19.688 18.5161 19.724 18.3334 19.724C18.1508 19.724 17.97 19.688 17.8013 19.6181C17.6325 19.5482 17.4792 19.4458 17.3501 19.3167L10.0001 11.9639L2.6501 19.3167C2.52096 19.4458 2.36766 19.5482 2.19894 19.6181C2.03022 19.688 1.84938 19.724 1.66676 19.724C1.48414 19.724 1.30331 19.688 1.13459 19.6181C0.965864 19.5482 0.812561 19.4458 0.683428 19.3167C0.554295 19.1875 0.451861 19.0342 0.381974 18.8655C0.312088 18.6968 0.276118 18.516 0.276118 18.3333C0.276118 18.1507 0.312088 17.9699 0.381974 17.8012C0.451861 17.6324 0.554295 17.4791 0.683428 17.35L8.03621 10L0.683428 2.65C0.554086 2.52099 0.451466 2.36772 0.381448 2.19899C0.311431 2.03025 0.275391 1.84936 0.275391 1.66667C0.275391 1.48398 0.311431 1.30309 0.381448 1.13435C0.451466 0.965618 0.554086 0.812352 0.683428 0.683337Z" fill="#FCF7FF"/>
</g>
<defs>
<clipPath id="clip0_5_298">
<rect width="20" height="20" fill="white"/>
</clipPath>
</defs>
</svg>
