<svg width="40" height="40" viewBox="0 0 40 40" fill="none" xmlns="http://www.w3.org/2000/svg">
<g clip-path="url(#clip0_2_233)">
<path fill-rule="evenodd" clip-rule="evenodd" d="M20 13.75C20.3315 13.75 20.6495 13.8817 20.8839 14.1161C21.1183 14.3505 21.25 14.6685 21.25 15V18.75H25C25.3315 18.75 25.6495 18.8817 25.8839 19.1161C26.1183 19.3505 26.25 19.6685 26.25 20C26.25 20.3315 26.1183 20.6495 25.8839 20.8839C25.6495 21.1183 25.3315 21.25 25 21.25H21.25V25C21.25 25.3315 21.1183 25.6495 20.8839 25.8839C20.6495 26.1183 20.3315 26.25 20 26.25C19.6685 26.25 19.3505 26.1183 19.1161 25.8839C18.8817 25.6495 18.75 25.3315 18.75 25V21.25H15C14.6685 21.25 14.3505 21.1183 14.1161 20.8839C13.8817 20.6495 13.75 20.3315 13.75 20C13.75 19.6685 13.8817 19.3505 14.1161 19.1161C14.3505 18.8817 14.6685 18.75 15 18.75H18.75V15C18.75 14.6685 18.8817 14.3505 19.1161 14.1161C19.3505 13.8817 19.6685 13.75 20 13.75V13.75Z" fill="#4B3775"/>
<path d="M25.6824 6.2825L23.3799 3.9225L25.1674 2.1775L26.7224 3.77L28.9474 3.7425C29.9106 3.7311 30.8662 3.9124 31.7583 4.27572C32.6503 4.63905 33.4607 5.17707 34.1418 5.85815C34.8229 6.53923 35.3609 7.34962 35.7242 8.24166C36.0875 9.1337 36.2688 10.0894 36.2574 11.0525L36.2324 13.2775L37.8224 14.8325C38.5111 15.5054 39.0583 16.3092 39.4319 17.1966C39.8055 18.084 39.9979 19.0372 39.9979 20C39.9979 20.9628 39.8055 21.916 39.4319 22.8034C39.0583 23.6908 38.5111 24.4946 37.8224 25.1675L36.2299 26.7225L36.2574 28.9475C36.2688 29.9106 36.0875 30.8663 35.7242 31.7583C35.3609 32.6504 34.8229 33.4608 34.1418 34.1419C33.4607 34.8229 32.6503 35.361 31.7583 35.7243C30.8662 36.0876 29.9106 36.2689 28.9474 36.2575L26.7224 36.2325L25.1674 37.8225C24.4945 38.5112 23.6907 39.0583 22.8033 39.4319C21.9159 39.8055 20.9628 39.998 19.9999 39.998C19.0371 39.998 18.084 39.8055 17.1966 39.4319C16.3092 39.0583 15.5054 38.5112 14.8324 37.8225L13.2774 36.23L11.0524 36.2575C10.0893 36.2689 9.13363 36.0876 8.2416 35.7243C7.34956 35.361 6.53917 34.8229 5.85809 34.1419C5.17701 33.4608 4.63899 32.6504 4.27566 31.7583C3.91234 30.8663 3.73104 29.9106 3.74244 28.9475L3.76744 26.7225L2.17744 25.1675C1.48879 24.4946 0.941593 23.6908 0.567999 22.8034C0.194405 21.916 0.00195312 20.9628 0.00195312 20C0.00195312 19.0372 0.194405 18.084 0.567999 17.1966C0.941593 16.3092 1.48879 15.5054 2.17744 14.8325L3.76994 13.2775L3.74244 11.0525C3.73104 10.0894 3.91234 9.1337 4.27566 8.24166C4.63899 7.34962 5.17701 6.53923 5.85809 5.85815C6.53917 5.17707 7.34956 4.63905 8.2416 4.27572C9.13363 3.9124 10.0893 3.7311 11.0524 3.7425L13.2774 3.7675L14.8324 2.1775C15.5054 1.48885 16.3092 0.941654 17.1966 0.56806C18.084 0.194466 19.0371 0.00201416 19.9999 0.00201416C20.9628 0.00201416 21.9159 0.194466 22.8033 0.56806C23.6907 0.941654 24.4945 1.48885 25.1674 2.1775L23.3799 3.9225C22.9398 3.47197 22.4141 3.11397 21.8337 2.86954C21.2532 2.62512 20.6298 2.4992 19.9999 2.4992C19.3701 2.4992 18.7467 2.62512 18.1662 2.86954C17.5858 3.11397 17.06 3.47197 16.6199 3.9225L14.3199 6.2825L11.0199 6.2425C10.3904 6.23546 9.76577 6.35431 9.1828 6.59207C8.59982 6.82983 8.07024 7.18169 7.62516 7.627C7.18009 8.07231 6.8285 8.60207 6.59105 9.18517C6.3536 9.76828 6.23507 10.393 6.24244 11.0225L6.28244 14.3175L3.92244 16.62C3.47191 17.0601 3.1139 17.5858 2.86948 18.1663C2.62506 18.7467 2.49914 19.3702 2.49914 20C2.49914 20.6298 2.62506 21.2533 2.86948 21.8337C3.1139 22.4142 3.47191 22.9399 3.92244 23.38L6.28244 25.68L6.24244 28.98C6.2354 29.6096 6.35425 30.2342 6.59201 30.8171C6.82977 31.4001 7.18163 31.9297 7.62694 32.3748C8.07225 32.8199 8.60201 33.1714 9.18511 33.4089C9.76821 33.6463 10.3929 33.7649 11.0224 33.7575L14.3174 33.7175L16.6199 36.0775C17.06 36.528 17.5858 36.886 18.1662 37.1305C18.7467 37.3749 19.3701 37.5008 19.9999 37.5008C20.6298 37.5008 21.2532 37.3749 21.8337 37.1305C22.4141 36.886 22.9398 36.528 23.3799 36.0775L25.6799 33.7175L28.9799 33.7575C29.6095 33.7645 30.2341 33.6457 30.8171 33.4079C31.4001 33.1702 31.9296 32.8183 32.3747 32.373C32.8198 31.9277 33.1714 31.3979 33.4088 30.8148C33.6463 30.2317 33.7648 29.6071 33.7574 28.9775L33.7174 25.6825L36.0774 23.38C36.528 22.9399 36.886 22.4142 37.1304 21.8337C37.3748 21.2533 37.5007 20.6298 37.5007 20C37.5007 19.3702 37.3748 18.7467 37.1304 18.1663C36.886 17.5858 36.528 17.0601 36.0774 16.62L33.7174 14.32L33.7574 11.02C33.7645 10.3904 33.6456 9.76583 33.4079 9.18286C33.1701 8.59988 32.8182 8.0703 32.3729 7.62523C31.9276 7.18015 31.3979 6.82856 30.8148 6.59111C30.2317 6.35366 29.607 6.23513 28.9774 6.2425L25.6824 6.2825V6.2825Z" fill="#4B3775"/>
</g>
<defs>
<clipPath id="clip0_2_233">
<rect width="40" height="40" fill="white"/>
</clipPath>
</defs>
</svg>
