<svg width="25" height="25" viewBox="0 0 25 25" fill="none" xmlns="http://www.w3.org/2000/svg">
<g clip-path="url(#clip0_2_127)">
<path fill-rule="evenodd" clip-rule="evenodd" d="M16.1781 9.60312C16.2509 9.6757 16.3086 9.76191 16.348 9.85682C16.3874 9.95174 16.4077 10.0535 16.4077 10.1563C16.4077 10.259 16.3874 10.3608 16.348 10.4557C16.3086 10.5506 16.2509 10.6368 16.1781 10.7094L11.4906 15.3969C11.4181 15.4696 11.3319 15.5274 11.2369 15.5667C11.142 15.6061 11.0403 15.6264 10.9375 15.6264C10.8347 15.6264 10.733 15.6061 10.6381 15.5667C10.5432 15.5274 10.457 15.4696 10.3844 15.3969L8.04064 13.0531C7.968 12.9805 7.91038 12.8943 7.87107 12.7993C7.83176 12.7044 7.81152 12.6027 7.81152 12.5C7.81152 12.3973 7.83176 12.2956 7.87107 12.2007C7.91038 12.1057 7.968 12.0195 8.04064 11.9469C8.11327 11.8742 8.19951 11.8166 8.29441 11.7773C8.38932 11.738 8.49104 11.7178 8.59376 11.7178C8.69649 11.7178 8.7982 11.738 8.89311 11.7773C8.98802 11.8166 9.07425 11.8742 9.14689 11.9469L10.9375 13.7391L15.0719 9.60312C15.1445 9.53037 15.2307 9.47265 15.3256 9.43326C15.4205 9.39388 15.5222 9.3736 15.625 9.3736C15.7278 9.3736 15.8295 9.39388 15.9244 9.43326C16.0194 9.47265 16.1056 9.53037 16.1781 9.60312V9.60312Z" fill="#FCF7FF"/>
<path d="M16.0515 3.92656L14.6125 2.45156L15.7297 1.36094L16.7015 2.35625L18.0922 2.33906C18.6941 2.33194 19.2914 2.44525 19.8489 2.67232C20.4065 2.8994 20.9129 3.23567 21.3386 3.66134C21.7643 4.08702 22.1006 4.59351 22.3276 5.15103C22.5547 5.70856 22.668 6.30586 22.6609 6.90781L22.6453 8.29844L23.639 9.27031C24.0694 9.69089 24.4114 10.1933 24.6449 10.7479C24.8784 11.3025 24.9987 11.8982 24.9987 12.5C24.9987 13.1018 24.8784 13.6975 24.6449 14.2521C24.4114 14.8067 24.0694 15.3091 23.639 15.7297L22.6437 16.7016L22.6609 18.0922C22.668 18.6941 22.5547 19.2914 22.3276 19.849C22.1006 20.4065 21.7643 20.913 21.3386 21.3387C20.9129 21.7643 20.4065 22.1006 19.8489 22.3277C19.2914 22.5548 18.6941 22.6681 18.0922 22.6609L16.7015 22.6453L15.7297 23.6391C15.3091 24.0695 14.8067 24.4115 14.2521 24.645C13.6974 24.8785 13.1017 24.9987 12.5 24.9987C11.8982 24.9987 11.3025 24.8785 10.7478 24.645C10.1932 24.4115 9.69085 24.0695 9.27028 23.6391L8.2984 22.6437L6.90778 22.6609C6.30582 22.6681 5.70852 22.5548 5.151 22.3277C4.59347 22.1006 4.08698 21.7643 3.66131 21.3387C3.23563 20.913 2.89937 20.4065 2.67229 19.849C2.44521 19.2914 2.3319 18.6941 2.33903 18.0922L2.35465 16.7016L1.3609 15.7297C0.930495 15.3091 0.588495 14.8067 0.354999 14.2521C0.121503 13.6975 0.0012207 13.1018 0.0012207 12.5C0.0012207 11.8982 0.121503 11.3025 0.354999 10.7479C0.588495 10.1933 0.930495 9.69089 1.3609 9.27031L2.35621 8.29844L2.33903 6.90781C2.3319 6.30586 2.44521 5.70856 2.67229 5.15103C2.89937 4.59351 3.23563 4.08702 3.66131 3.66134C4.08698 3.23567 4.59347 2.8994 5.151 2.67232C5.70852 2.44525 6.30582 2.33194 6.90778 2.33906L8.2984 2.35469L9.27028 1.36094C9.69085 0.930531 10.1932 0.588532 10.7478 0.355035C11.3025 0.121539 11.8982 0.00125694 12.5 0.00125694C13.1017 0.00125694 13.6974 0.121539 14.2521 0.355035C14.8067 0.588532 15.3091 0.930531 15.7297 1.36094L14.6125 2.45156C14.3374 2.16998 14.0088 1.94623 13.646 1.79346C13.2833 1.6407 12.8936 1.562 12.5 1.562C12.1063 1.562 11.7167 1.6407 11.3539 1.79346C10.9911 1.94623 10.6625 2.16998 10.3875 2.45156L8.94996 3.92656L6.88746 3.90156C6.49399 3.89716 6.10361 3.97144 5.73925 4.12004C5.37489 4.26864 5.0439 4.48856 4.76573 4.76687C4.48756 5.04519 4.26781 5.37629 4.11941 5.74073C3.971 6.10517 3.89692 6.49559 3.90153 6.88906L3.92653 8.94844L2.45153 10.3875C2.16994 10.6626 1.94619 10.9911 1.79342 11.3539C1.64066 11.7167 1.56196 12.1064 1.56196 12.5C1.56196 12.8936 1.64066 13.2833 1.79342 13.6461C1.94619 14.0089 2.16994 14.3374 2.45153 14.6125L3.92653 16.05L3.90153 18.1125C3.89713 18.506 3.97141 18.8964 4.12001 19.2607C4.2686 19.6251 4.48852 19.9561 4.76684 20.2342C5.04515 20.5124 5.37626 20.7321 5.7407 20.8806C6.10513 21.029 6.49556 21.103 6.88903 21.0984L8.9484 21.0734L10.3875 22.5484C10.6625 22.83 10.9911 23.0538 11.3539 23.2065C11.7167 23.3593 12.1063 23.438 12.5 23.438C12.8936 23.438 13.2833 23.3593 13.646 23.2065C14.0088 23.0538 14.3374 22.83 14.6125 22.5484L16.05 21.0734L18.1125 21.0984C18.5059 21.1028 18.8963 21.0286 19.2607 20.88C19.625 20.7314 19.956 20.5114 20.2342 20.2331C20.5124 19.9548 20.7321 19.6237 20.8805 19.2593C21.0289 18.8948 21.103 18.5044 21.0984 18.1109L21.0734 16.0516L22.5484 14.6125C22.83 14.3374 23.0537 14.0089 23.2065 13.6461C23.3593 13.2833 23.438 12.8936 23.438 12.5C23.438 12.1064 23.3593 11.7167 23.2065 11.3539C23.0537 10.9911 22.83 10.6626 22.5484 10.3875L21.0734 8.95L21.0984 6.8875C21.1028 6.49403 21.0285 6.10364 20.8799 5.73928C20.7313 5.37492 20.5114 5.04394 20.2331 4.76576C19.9548 4.48759 19.6237 4.26785 19.2592 4.11944C18.8948 3.97103 18.5044 3.89696 18.1109 3.90156L16.0515 3.92656V3.92656Z" fill="#FCF7FF"/>
</g>
<defs>
<clipPath id="clip0_2_127">
<rect width="25" height="25" fill="white"/>
</clipPath>
</defs>
</svg>
