<svg width="30" height="30" viewBox="0 0 30 30" fill="none" xmlns="http://www.w3.org/2000/svg">
<g clip-path="url(#clip0_2_246)">
<path d="M18.8756 1.63142C18.3709 1.11493 17.7681 0.704531 17.1025 0.424336C16.437 0.14414 15.7221 -0.000198364 15 -0.000198364C14.2779 -0.000198364 13.563 0.14414 12.8975 0.424336C12.2319 0.704531 11.6291 1.11493 11.1244 1.63142L9.95813 2.82767L8.28938 2.80704C7.56703 2.79849 6.85027 2.93446 6.18124 3.20696C5.51221 3.47945 4.90442 3.88297 4.39361 4.39378C3.8828 4.90459 3.47929 5.51238 3.20679 6.18141C2.9343 6.85044 2.79833 7.5672 2.80688 8.28954L2.82563 9.95829L1.63313 11.1245C1.11664 11.6292 0.70624 12.2321 0.426045 12.8976C0.145849 13.5632 0.00151062 14.278 0.00151062 15.0002C0.00151062 15.7223 0.145849 16.4371 0.426045 17.1027C0.70624 17.7683 1.11664 18.3711 1.63313 18.8758L2.8275 20.042L2.80688 21.7108C2.79833 22.4331 2.9343 23.1499 3.20679 23.8189C3.47929 24.488 3.8828 25.0957 4.39361 25.6066C4.90442 26.1174 5.51221 26.5209 6.18124 26.7934C6.85027 27.0659 7.56703 27.2018 8.28938 27.1933L9.95813 27.1745L11.1244 28.367C11.6291 28.8835 12.2319 29.2939 12.8975 29.5741C13.563 29.8543 14.2779 29.9987 15 29.9987C15.7221 29.9987 16.437 29.8543 17.1025 29.5741C17.7681 29.2939 18.3709 28.8835 18.8756 28.367L20.0419 27.1727L21.7106 27.1933C22.433 27.2018 23.1497 27.0659 23.8188 26.7934C24.4878 26.5209 25.0956 26.1174 25.6064 25.6066C26.1172 25.0957 26.5207 24.488 26.7932 23.8189C27.0657 23.1499 27.2017 22.4331 27.1931 21.7108L27.1744 20.042L28.3669 18.8758C28.8834 18.3711 29.2938 17.7683 29.574 17.1027C29.8542 16.4371 29.9985 15.7223 29.9985 15.0002C29.9985 14.278 29.8542 13.5632 29.574 12.8976C29.2938 12.2321 28.8834 11.6292 28.3669 11.1245L27.1725 9.95829L27.1931 8.28954C27.2017 7.5672 27.0657 6.85044 26.7932 6.18141C26.5207 5.51238 26.1172 4.90459 25.6064 4.39378C25.0956 3.88297 24.4878 3.47945 23.8188 3.20696C23.1497 2.93446 22.433 2.79849 21.7106 2.80704L20.0419 2.82579L18.8756 1.63329V1.63142ZM15.9375 11.2502V14.0627H18.75C18.9986 14.0627 19.2371 14.1614 19.4129 14.3373C19.5887 14.5131 19.6875 14.7515 19.6875 15.0002C19.6875 15.2488 19.5887 15.4873 19.4129 15.6631C19.2371 15.8389 18.9986 15.9377 18.75 15.9377H15.9375V18.7502C15.9375 18.9988 15.8387 19.2373 15.6629 19.4131C15.4871 19.5889 15.2486 19.6877 15 19.6877C14.7514 19.6877 14.5129 19.5889 14.3371 19.4131C14.1613 19.2373 14.0625 18.9988 14.0625 18.7502V15.9377H11.25C11.0014 15.9377 10.7629 15.8389 10.5871 15.6631C10.4113 15.4873 10.3125 15.2488 10.3125 15.0002C10.3125 14.7515 10.4113 14.5131 10.5871 14.3373C10.7629 14.1614 11.0014 14.0627 11.25 14.0627H14.0625V11.2502C14.0625 11.0015 14.1613 10.7631 14.3371 10.5873C14.5129 10.4114 14.7514 10.3127 15 10.3127C15.2486 10.3127 15.4871 10.4114 15.6629 10.5873C15.8387 10.7631 15.9375 11.0015 15.9375 11.2502V11.2502Z" fill="#B648EA"/>
</g>
<defs>
<clipPath id="clip0_2_246">
<rect width="30" height="30" fill="white"/>
</clipPath>
</defs>
</svg>
