<svg width="25" height="25" viewBox="0 0 25 25" fill="none" xmlns="http://www.w3.org/2000/svg">
<g clip-path="url(#clip0_14_2)">
<path d="M15.7297 1.35938C15.3091 0.928969 14.8067 0.58697 14.2521 0.353473C13.6974 0.119977 13.1017 -0.000305176 12.5 -0.000305176C11.8982 -0.000305176 11.3025 0.119977 10.7478 0.353473C10.1932 0.58697 9.69085 0.928969 9.27028 1.35938L8.2984 2.35625L6.90778 2.33906C6.30582 2.33194 5.70852 2.44525 5.151 2.67233C4.59347 2.8994 4.08698 3.23567 3.66131 3.66134C3.23563 4.08702 2.89937 4.59351 2.67229 5.15103C2.44521 5.70856 2.3319 6.30586 2.33903 6.90781L2.35465 8.29844L1.3609 9.27031C0.930495 9.69089 0.588495 10.1933 0.354999 10.7479C0.121503 11.3025 0.0012207 11.8982 0.0012207 12.5C0.0012207 13.1018 0.121503 13.6975 0.354999 14.2521C0.588495 14.8067 0.930495 15.3091 1.3609 15.7297L2.35621 16.7016L2.33903 18.0922C2.3319 18.6941 2.44521 19.2914 2.67229 19.849C2.89937 20.4065 3.23563 20.913 3.66131 21.3387C4.08698 21.7643 4.59347 22.1006 5.151 22.3277C5.70852 22.5548 6.30582 22.6681 6.90778 22.6609L8.2984 22.6453L9.27028 23.6391C9.69085 24.0695 10.1932 24.4115 10.7478 24.645C11.3025 24.8785 11.8982 24.9987 12.5 24.9987C13.1017 24.9987 13.6974 24.8785 14.2521 24.645C14.8067 24.4115 15.3091 24.0695 15.7297 23.6391L16.7015 22.6437L18.0922 22.6609C18.6941 22.6681 19.2914 22.5548 19.8489 22.3277C20.4065 22.1006 20.9129 21.7643 21.3386 21.3387C21.7643 20.913 22.1006 20.4065 22.3276 19.849C22.5547 19.2914 22.668 18.6941 22.6609 18.0922L22.6453 16.7016L23.639 15.7297C24.0694 15.3091 24.4114 14.8067 24.6449 14.2521C24.8784 13.6975 24.9987 13.1018 24.9987 12.5C24.9987 11.8982 24.8784 11.3025 24.6449 10.7479C24.4114 10.1933 24.0694 9.69089 23.639 9.27031L22.6437 8.29844L22.6609 6.90781C22.668 6.30586 22.5547 5.70856 22.3276 5.15103C22.1006 4.59351 21.7643 4.08702 21.3386 3.66134C20.9129 3.23567 20.4065 2.8994 19.8489 2.67233C19.2914 2.44525 18.6941 2.33194 18.0922 2.33906L16.7015 2.35469L15.7297 1.36094V1.35938ZM9.37496 11.7188H15.625C15.8322 11.7188 16.0309 11.8011 16.1774 11.9476C16.3239 12.0941 16.4062 12.2928 16.4062 12.5C16.4062 12.7072 16.3239 12.9059 16.1774 13.0524C16.0309 13.1989 15.8322 13.2813 15.625 13.2813H9.37496C9.16776 13.2813 8.96905 13.1989 8.82254 13.0524C8.67602 12.9059 8.59371 12.7072 8.59371 12.5C8.59371 12.2928 8.67602 12.0941 8.82254 11.9476C8.96905 11.8011 9.16776 11.7188 9.37496 11.7188V11.7188Z" fill="#5D4A83"/>
</g>
<defs>
<clipPath id="clip0_14_2">
<rect width="25" height="25" fill="white"/>
</clipPath>
</defs>
</svg>
