<svg width="40" height="40" viewBox="0 0 40 40" fill="none" xmlns="http://www.w3.org/2000/svg">
<g clip-path="url(#clip0_2_154)">
<path d="M25.1674 2.175C24.4945 1.48635 23.6907 0.939151 22.8033 0.565557C21.9159 0.191963 20.9628 -0.000488281 19.9999 -0.000488281C19.0371 -0.000488281 18.084 0.191963 17.1966 0.565557C16.3092 0.939151 15.5054 1.48635 14.8324 2.175L13.2774 3.77L11.0524 3.7425C10.0893 3.7311 9.13363 3.91239 8.2416 4.27572C7.34956 4.63905 6.53917 5.17707 5.85809 5.85815C5.17701 6.53923 4.63899 7.34961 4.27566 8.24165C3.91234 9.13369 3.73104 10.0894 3.74244 11.0525L3.76744 13.2775L2.17744 14.8325C1.48879 15.5054 0.941593 16.3092 0.567999 17.1966C0.194405 18.084 0.00195313 19.0372 0.00195312 20C0.00195313 20.9628 0.194405 21.916 0.567999 22.8034C0.941593 23.6908 1.48879 24.4946 2.17744 25.1675L3.76994 26.7225L3.74244 28.9475C3.73104 29.9106 3.91234 30.8663 4.27566 31.7583C4.63899 32.6504 5.17701 33.4608 5.85809 34.1419C6.53917 34.8229 7.34956 35.361 8.2416 35.7243C9.13363 36.0876 10.0893 36.2689 11.0524 36.2575L13.2774 36.2325L14.8324 37.8225C15.5054 38.5111 16.3092 39.0583 17.1966 39.4319C18.084 39.8055 19.0371 39.998 19.9999 39.998C20.9628 39.998 21.9159 39.8055 22.8033 39.4319C23.6907 39.0583 24.4945 38.5111 25.1674 37.8225L26.7224 36.23L28.9474 36.2575C29.9106 36.2689 30.8662 36.0876 31.7583 35.7243C32.6503 35.361 33.4607 34.8229 34.1418 34.1419C34.8229 33.4608 35.3609 32.6504 35.7242 31.7583C36.0875 30.8663 36.2688 29.9106 36.2574 28.9475L36.2324 26.7225L37.8224 25.1675C38.5111 24.4946 39.0583 23.6908 39.4319 22.8034C39.8055 21.916 39.9979 20.9628 39.9979 20C39.9979 19.0372 39.8055 18.084 39.4319 17.1966C39.0583 16.3092 38.5111 15.5054 37.8224 14.8325L36.2299 13.2775L36.2574 11.0525C36.2688 10.0894 36.0875 9.13369 35.7242 8.24165C35.3609 7.34961 34.8229 6.53923 34.1418 5.85815C33.4607 5.17707 32.6503 4.63905 31.7583 4.27572C30.8662 3.91239 29.9106 3.7311 28.9474 3.7425L26.7224 3.7675L25.1674 2.1775V2.175ZM25.8849 17.135L18.3849 24.635C18.2688 24.7514 18.1309 24.8438 17.979 24.9068C17.8272 24.9698 17.6644 25.0022 17.4999 25.0022C17.3355 25.0022 17.1727 24.9698 17.0209 24.9068C16.869 24.8438 16.7311 24.7514 16.6149 24.635L12.8649 20.885C12.7487 20.7688 12.6565 20.6308 12.5936 20.479C12.5307 20.3271 12.4984 20.1644 12.4984 20C12.4984 19.8356 12.5307 19.6729 12.5936 19.521C12.6565 19.3692 12.7487 19.2312 12.8649 19.115C12.9812 18.9988 13.1191 18.9066 13.271 18.8437C13.4228 18.7808 13.5856 18.7484 13.7499 18.7484C13.9143 18.7484 14.0771 18.7808 14.2289 18.8437C14.3807 18.9066 14.5187 18.9988 14.6349 19.115L17.4999 21.9825L24.1149 15.365C24.3497 15.1303 24.668 14.9984 24.9999 14.9984C25.3319 14.9984 25.6502 15.1303 25.8849 15.365C26.1197 15.5997 26.2515 15.9181 26.2515 16.25C26.2515 16.5819 26.1197 16.9003 25.8849 17.135V17.135Z" fill="#55FBDC"/>
</g>
<defs>
<clipPath id="clip0_2_154">
<rect width="40" height="40" fill="white"/>
</clipPath>
</defs>
</svg>
