<svg width="32" height="32" viewBox="0 0 32 32" fill="none" xmlns="http://www.w3.org/2000/svg">
<g clip-path="url(#clip0_2_246)">
<path d="M20.1324 1.74039C19.5941 1.18947 18.951 0.751712 18.2411 0.452836C17.5312 0.153961 16.7687 0 15.9984 0C15.2281 0 14.4656 0.153961 13.7557 0.452836C13.0458 0.751712 12.4027 1.18947 11.8644 1.74039L10.6204 3.01639L8.84039 2.99439C8.06989 2.98527 7.30535 3.13031 6.59171 3.42097C5.87808 3.71163 5.22977 4.14204 4.68491 4.68691C4.14005 5.23177 3.70963 5.88008 3.41897 6.59371C3.12831 7.30735 2.98327 8.07189 2.99239 8.84239L3.01239 10.6224L1.74039 11.8664C1.18947 12.4047 0.751712 13.0478 0.452837 13.7577C0.153961 14.4676 0 15.2301 0 16.0004C0 16.7707 0.153961 17.5332 0.452837 18.2431C0.751712 18.953 1.18947 19.5961 1.74039 20.1344L3.01439 21.3784L2.99239 23.1584C2.98327 23.9289 3.12831 24.6934 3.41897 25.4071C3.70963 26.1207 4.14005 26.769 4.68491 27.3139C5.22977 27.8587 5.87808 28.2892 6.59171 28.5798C7.30535 28.8705 8.06989 29.0155 8.84039 29.0064L10.6204 28.9864L11.8644 30.2584C12.4027 30.8093 13.0458 31.2471 13.7557 31.5459C14.4656 31.8448 15.2281 31.9988 15.9984 31.9988C16.7687 31.9988 17.5312 31.8448 18.2411 31.5459C18.951 31.2471 19.5941 30.8093 20.1324 30.2584L21.3764 28.9844L23.1564 29.0064C23.9269 29.0155 24.6914 28.8705 25.4051 28.5798C26.1187 28.2892 26.767 27.8587 27.3119 27.3139C27.8567 26.769 28.2872 26.1207 28.5778 25.4071C28.8685 24.6934 29.0135 23.9289 29.0044 23.1584L28.9844 21.3784L30.2564 20.1344C30.8073 19.5961 31.2451 18.953 31.5439 18.2431C31.8428 17.5332 31.9968 16.7707 31.9968 16.0004C31.9968 15.2301 31.8428 14.4676 31.5439 13.7577C31.2451 13.0478 30.8073 12.4047 30.2564 11.8664L28.9824 10.6224L29.0044 8.84239C29.0135 8.07189 28.8685 7.30735 28.5778 6.59371C28.2872 5.88008 27.8567 5.23177 27.3119 4.68691C26.767 4.14204 26.1187 3.71163 25.4051 3.42097C24.6914 3.13031 23.9269 2.98527 23.1564 2.99439L21.3764 3.01439L20.1324 1.74239V1.74039ZM16.9984 12.0004V15.0004H19.9984C20.2636 15.0004 20.518 15.1057 20.7055 15.2933C20.893 15.4808 20.9984 15.7352 20.9984 16.0004C20.9984 16.2656 20.893 16.52 20.7055 16.7075C20.518 16.895 20.2636 17.0004 19.9984 17.0004H16.9984V20.0004C16.9984 20.2656 16.893 20.52 16.7055 20.7075C16.518 20.895 16.2636 21.0004 15.9984 21.0004C15.7332 21.0004 15.4788 20.895 15.2913 20.7075C15.1037 20.52 14.9984 20.2656 14.9984 20.0004V17.0004H11.9984C11.7332 17.0004 11.4788 16.895 11.2913 16.7075C11.1037 16.52 10.9984 16.2656 10.9984 16.0004C10.9984 15.7352 11.1037 15.4808 11.2913 15.2933C11.4788 15.1057 11.7332 15.0004 11.9984 15.0004H14.9984V12.0004C14.9984 11.7352 15.1037 11.4808 15.2913 11.2933C15.4788 11.1057 15.7332 11.0004 15.9984 11.0004C16.2636 11.0004 16.518 11.1057 16.7055 11.2933C16.893 11.4808 16.9984 11.7352 16.9984 12.0004V12.0004Z" fill="#755EB2"/>
</g>
<defs>
<clipPath id="clip0_2_246">
<rect width="32" height="32" fill="white"/>
</clipPath>
</defs>
</svg>
